<?xml version="1.0" encoding="iso-8859-1"?>
<!-- Uploaded to: SVG Repo, www.svgrepo.com, Generator: SVG Repo Mixer Tools -->
<svg height="800px" width="800px" version="1.1" id="Capa_1" xmlns="http://www.w3.org/2000/svg" xmlns:xlink="http://www.w3.org/1999/xlink" 
	 viewBox="0 0 26 26" xml:space="preserve">
<g>
	<g>
		<path style="fill:#030104;" d="M19.32,26H6.679v-1.076c0.556-0.199,1.117-0.372,1.686-0.52c0.568-0.15,1.18-0.272,1.837-0.373
			v-22.1H5.408L3.401,7.244H2.455c-0.076-0.495-0.139-1.06-0.19-1.691C2.214,4.924,2.171,4.28,2.132,3.621
			c-0.039-0.652-0.069-1.3-0.093-1.929C2.013,1.063,2,0.496,2,0h22c0,0.496-0.014,1.055-0.039,1.672
			c-0.026,0.619-0.058,1.257-0.097,1.913s-0.075,1.3-0.114,1.932c-0.038,0.631-0.095,1.209-0.172,1.728h-0.996l-1.99-5.313h-4.756
			v22.101c0.656,0.125,1.27,0.248,1.836,0.373c0.569,0.123,1.117,0.295,1.648,0.52V26z"/>
	</g>
</g>
</svg>